<svg xmlns="http://www.w3.org/2000/svg" viewBox="0 0 60 128">
  <defs>
    <linearGradient id="van-body" x1="0" y1="0" x2="1" y2="0">
      <stop offset="0" stop-color="#5f7280"/>
      <stop offset="0.5" stop-color="#8ba0ae"/>
      <stop offset="1" stop-color="#5f7280"/>
    </linearGradient>
  </defs>
  <!-- колёса -->
  <g fill="#1c2027">
    <rect x="1" y="26" width="8" height="21" rx="4"/>
    <rect x="51" y="26" width="8" height="21" rx="4"/>
    <rect x="1" y="86" width="8" height="21" rx="4"/>
    <rect x="51" y="86" width="8" height="21" rx="4"/>
  </g>
  <!-- кузов: коробчатый, почти без сужения -->
  <path d="M30 3C18 3 8 8 8 22v86c0 12 10 17 22 17s22-5 22-17V22C52 8 42 3 30 3Z" fill="url(#van-body)" stroke="#46555f" stroke-width="2"/>
  <!-- зеркала -->
  <g fill="#556676">
    <rect x="2" y="38" width="7" height="12" rx="3.5"/>
    <rect x="51" y="38" width="7" height="12" rx="3.5"/>
  </g>
  <!-- фары -->
  <rect x="13" y="7" width="11" height="4" rx="2" fill="#fff" opacity="0.6"/>
  <rect x="36" y="7" width="11" height="4" rx="2" fill="#fff" opacity="0.6"/>
  <!-- лобовое стекло: крутое, близко к капоту -->
  <path d="M12 26c4-5 10-7 18-7s14 2 18 7l-2 11c-9-4-23-4-32 0Z" fill="#171b22"/>
  <!-- длинная крыша салона -->
  <rect x="12" y="42" width="36" height="58" rx="10" fill="#9db0bd"/>
  <!-- боковые окна салона -->
  <rect x="15" y="47" width="6" height="48" rx="3" fill="#171b22" opacity="0.8"/>
  <rect x="39" y="47" width="6" height="48" rx="3" fill="#171b22" opacity="0.8"/>
  <!-- заднее стекло -->
  <path d="M14 104c9 4 23 4 32 0l1 9c-10 4-24 4-34 0Z" fill="#171b22" opacity="0.9"/>
</svg>
