<svg xmlns="http://www.w3.org/2000/svg" viewBox="0 0 60 128">
  <defs>
    <linearGradient id="cmf-body" x1="0" y1="0" x2="1" y2="0">
      <stop offset="0" stop-color="#8fa3bd"/>
      <stop offset="0.28" stop-color="#ccd7e6"/>
      <stop offset="0.5" stop-color="#e9eef6"/>
      <stop offset="0.72" stop-color="#ccd7e6"/>
      <stop offset="1" stop-color="#8fa3bd"/>
    </linearGradient>
    <linearGradient id="cmf-glass" x1="0" y1="0" x2="0" y2="1">
      <stop offset="0" stop-color="#28303d"/>
      <stop offset="1" stop-color="#11161f"/>
    </linearGradient>
  </defs>
  <!-- колёса -->
  <g fill="#171b22">
    <rect x="1.5" y="22" width="8" height="21" rx="4"/>
    <rect x="50.5" y="22" width="8" height="21" rx="4"/>
    <rect x="1.5" y="85" width="8" height="21" rx="4"/>
    <rect x="50.5" y="85" width="8" height="21" rx="4"/>
  </g>
  <!-- кузов -->
  <path d="M30 1.5C19.5 1.5 11.5 5.8 9.6 15 8.7 19.6 8.5 24.6 8.5 30.6v67c0 6 .2 11 1.1 15.6 1.9 9.2 9.9 13.4 20.4 13.4s18.5-4.2 20.4-13.4c.9-4.6 1.1-9.6 1.1-15.6v-67c0-6-.2-11-1.1-15.6C48.5 5.8 40.5 1.5 30 1.5Z" fill="url(#cmf-body)" stroke="#75879f" stroke-width="1.6"/>
  <!-- капот: блик -->
  <path d="M30 6.5c7.5 0 13.5 2 16 6.5-4.5-2-9.8-3-16-3s-11.5 1-16 3c2.5-4.5 8.5-6.5 16-6.5Z" fill="#fff" opacity="0.5"/>
  <!-- фары -->
  <path d="M12.5 6c2-1.6 4.6-2.7 7.5-3.4l1.8 4.6c-2.9.5-5.5 1.4-7.7 2.6Z" fill="#eef6ff" opacity="0.95"/>
  <path d="M47.5 6c-2-1.6-4.6-2.7-7.5-3.4l-1.8 4.6c2.9.5 5.5 1.4 7.7 2.6Z" fill="#eef6ff" opacity="0.95"/>
  <!-- зеркала -->
  <path d="M8.5 43c-3.2.3-5 1.6-5 3.8 0 2 1.4 3 4.2 3l.8-.1Z" fill="#7d90a9"/>
  <path d="M51.5 43c3.2.3 5 1.6 5 3.8 0 2-1.4 3-4.2 3l-.8-.1Z" fill="#7d90a9"/>
  <!-- лобовое стекло -->
  <path d="M14.5 32.5c3.4-5.4 9-8 15.5-8s12.1 2.6 15.5 8l-2.7 12.8c-7.8-3.9-17.8-3.9-25.6 0Z" fill="url(#cmf-glass)"/>
  <!-- боковые стёкла -->
  <rect x="10.6" y="50" width="3.6" height="37" rx="1.8" fill="#11161f" opacity="0.8"/>
  <rect x="45.8" y="50" width="3.6" height="37" rx="1.8" fill="#11161f" opacity="0.8"/>
  <!-- крыша с панорамным люком -->
  <rect x="15" y="50.5" width="30" height="38" rx="8.5" fill="#e6ecf4"/>
  <rect x="19.5" y="56" width="21" height="15" rx="5" fill="url(#cmf-glass)" opacity="0.92"/>
  <!-- заднее стекло -->
  <path d="M15.5 95c8.3 4 20.7 4 29 0l2.3 10.7c-10.4 4.4-23.2 4.4-33.6 0Z" fill="url(#cmf-glass)" opacity="0.95"/>
  <!-- задние фонари -->
  <path d="M12 121c2.2 1.4 4.9 2.4 8 3l1.3-4.4c-3-.5-5.7-1.4-8-2.6Z" fill="#d64438"/>
  <path d="M48 121c-2.2 1.4-4.9 2.4-8 3l-1.3-4.4c3-.5 5.7-1.4 8-2.6Z" fill="#d64438"/>
</svg>
