<svg xmlns="http://www.w3.org/2000/svg" viewBox="0 0 60 128">
  <defs>
    <linearGradient id="biz-body" x1="0" y1="0" x2="1" y2="0">
      <stop offset="0" stop-color="#0c0e13"/>
      <stop offset="0.28" stop-color="#2e3440"/>
      <stop offset="0.5" stop-color="#454d5e"/>
      <stop offset="0.72" stop-color="#2e3440"/>
      <stop offset="1" stop-color="#0c0e13"/>
    </linearGradient>
    <linearGradient id="biz-glass" x1="0" y1="0" x2="0" y2="1">
      <stop offset="0" stop-color="#1a2029"/>
      <stop offset="1" stop-color="#05070b"/>
    </linearGradient>
  </defs>
  <!-- колёса -->
  <g fill="#050608">
    <rect x="1.5" y="21" width="8" height="22" rx="4"/>
    <rect x="50.5" y="21" width="8" height="22" rx="4"/>
    <rect x="1.5" y="85" width="8" height="22" rx="4"/>
    <rect x="50.5" y="85" width="8" height="22" rx="4"/>
  </g>
  <!-- кузов: длинный представительский седан -->
  <path d="M30 1C19.5 1 11.5 5.3 9.6 14.6 8.7 19.2 8.5 24.2 8.5 30.2v68c0 6 .2 11 1.1 15.6C11.5 123 19.5 127 30 127s18.5-4 20.4-13.2c.9-4.6 1.1-9.6 1.1-15.6v-68c0-6-.2-11-1.1-15.6C48.5 5.3 40.5 1 30 1Z" fill="url(#biz-body)" stroke="#000" stroke-width="1.6"/>
  <!-- капот: холодный блик -->
  <path d="M30 6c7.5 0 13.5 2 16 6.5-4.5-2-9.8-3-16-3s-11.5 1-16 3C16.5 8 22.5 6 30 6Z" fill="#aebfd6" opacity="0.3"/>
  <!-- фары: ледяные LED -->
  <path d="M12.5 5.5c2-1.6 4.6-2.7 7.5-3.4l1.8 4.6c-2.9.5-5.5 1.4-7.7 2.6Z" fill="#cfe3ff" opacity="0.95"/>
  <path d="M47.5 5.5c-2-1.6-4.6-2.7-7.5-3.4l-1.8 4.6c2.9.5 5.5 1.4 7.7 2.6Z" fill="#cfe3ff" opacity="0.95"/>
  <!-- зеркала -->
  <path d="M8.5 42c-3.2.3-5 1.6-5 3.8 0 2 1.4 3 4.2 3l.8-.1Z" fill="#22262e"/>
  <path d="M51.5 42c3.2.3 5 1.6 5 3.8 0 2-1.4 3-4.2 3l-.8-.1Z" fill="#22262e"/>
  <!-- лобовое стекло -->
  <path d="M14.5 31.5c3.4-5.4 9-8 15.5-8s12.1 2.6 15.5 8l-2.7 12.8c-7.8-3.9-17.8-3.9-25.6 0Z" fill="url(#biz-glass)"/>
  <!-- боковые стёкла: тонировка -->
  <rect x="10.6" y="49" width="3.6" height="39" rx="1.8" fill="#05070b" opacity="0.9"/>
  <rect x="45.8" y="49" width="3.6" height="39" rx="1.8" fill="#05070b" opacity="0.9"/>
  <!-- крыша с золотой окантовкой -->
  <rect x="15" y="49.5" width="30" height="40" rx="8.5" fill="#191d26"/>
  <rect x="15.8" y="50.3" width="28.4" height="38.4" rx="7.7" fill="none" stroke="#e6ad2e" stroke-width="1.2" opacity="0.85"/>
  <!-- заднее стекло -->
  <path d="M15.5 96c8.3 4 20.7 4 29 0l2.3 10.7c-10.4 4.4-23.2 4.4-33.6 0Z" fill="url(#biz-glass)"/>
  <!-- задние фонари -->
  <path d="M12 122c2.2 1.4 4.9 2.4 8 3l1.3-4.4c-3-.5-5.7-1.4-8-2.6Z" fill="#c1272d"/>
  <path d="M48 122c-2.2 1.4-4.9 2.4-8 3l-1.3-4.4c3-.5 5.7-1.4 8-2.6Z" fill="#c1272d"/>
</svg>
