<svg xmlns="http://www.w3.org/2000/svg" viewBox="0 0 60 128">
  <defs>
    <linearGradient id="biz-body" x1="0" y1="0" x2="1" y2="0">
      <stop offset="0" stop-color="#15171c"/>
      <stop offset="0.5" stop-color="#3d434f"/>
      <stop offset="1" stop-color="#15171c"/>
    </linearGradient>
  </defs>
  <!-- колёса -->
  <g fill="#0a0c0f">
    <rect x="1" y="22" width="8" height="22" rx="4"/>
    <rect x="51" y="22" width="8" height="22" rx="4"/>
    <rect x="1" y="84" width="8" height="22" rx="4"/>
    <rect x="51" y="84" width="8" height="22" rx="4"/>
  </g>
  <!-- кузов: удлинённый седан -->
  <path d="M30 1C16 1 7 10 7 26v77c0 16 9 24 23 24s23-8 23-24V26C53 10 44 1 30 1Z" fill="url(#biz-body)" stroke="#000" stroke-width="2"/>
  <!-- зеркала -->
  <g fill="#2a2e37">
    <rect x="2" y="44" width="7" height="12" rx="3.5"/>
    <rect x="51" y="44" width="7" height="12" rx="3.5"/>
  </g>
  <!-- фары -->
  <rect x="13" y="5" width="11" height="3.5" rx="1.75" fill="#cfe3ff" opacity="0.85"/>
  <rect x="36" y="5" width="11" height="3.5" rx="1.75" fill="#cfe3ff" opacity="0.85"/>
  <!-- лобовое стекло -->
  <path d="M13 32c3-6 9-9 17-9s14 3 17 9l-3 12c-8-4-20-4-28 0Z" fill="#0b0d11"/>
  <!-- заднее стекло -->
  <path d="M14 97c8 4 24 4 32 0l2 10c-9 4-27 4-36 0Z" fill="#0b0d11" opacity="0.95"/>
  <!-- крыша с золотой окантовкой -->
  <rect x="13" y="50" width="34" height="43" rx="10" fill="#22262e"/>
  <rect x="13" y="50" width="34" height="43" rx="10" fill="none" stroke="#e6ad2e" stroke-width="1.5" opacity="0.9"/>
</svg>
