<svg xmlns="http://www.w3.org/2000/svg" viewBox="0 0 60 128">
  <defs>
    <linearGradient id="eco-body" x1="0" y1="0" x2="1" y2="0">
      <stop offset="0" stop-color="#e8a90f"/>
      <stop offset="0.28" stop-color="#ffd23f"/>
      <stop offset="0.5" stop-color="#ffdf66"/>
      <stop offset="0.72" stop-color="#ffd23f"/>
      <stop offset="1" stop-color="#e8a90f"/>
    </linearGradient>
    <linearGradient id="eco-glass" x1="0" y1="0" x2="0" y2="1">
      <stop offset="0" stop-color="#2b3442"/>
      <stop offset="1" stop-color="#141a24"/>
    </linearGradient>
  </defs>
  <!-- колёса -->
  <g fill="#1a1e26">
    <rect x="1.5" y="23" width="8" height="20" rx="4"/>
    <rect x="50.5" y="23" width="8" height="20" rx="4"/>
    <rect x="1.5" y="85" width="8" height="20" rx="4"/>
    <rect x="50.5" y="85" width="8" height="20" rx="4"/>
  </g>
  <!-- кузов -->
  <path d="M30 2C19.5 2 11.5 6.2 9.6 15.5 8.7 20 8.5 25 8.5 31v66c0 6 .2 11 1.1 15.5C11.5 121.8 19.5 126 30 126s18.5-4.2 20.4-13.5c.9-4.5 1.1-9.5 1.1-15.5V31c0-6-.2-11-1.1-15.5C48.5 6.2 40.5 2 30 2Z" fill="url(#eco-body)" stroke="#b8860b" stroke-width="1.6"/>
  <!-- капот: блик -->
  <path d="M30 7c7.5 0 13.5 2 16 6.5-4.5-2-9.8-3-16-3s-11.5 1-16 3C16.5 9 22.5 7 30 7Z" fill="#fff" opacity="0.28"/>
  <!-- фары -->
  <path d="M12.5 6.5c2-1.6 4.6-2.7 7.5-3.4l1.8 4.6c-2.9.5-5.5 1.4-7.7 2.6Z" fill="#fff8dd" opacity="0.9"/>
  <path d="M47.5 6.5c-2-1.6-4.6-2.7-7.5-3.4l-1.8 4.6c2.9.5 5.5 1.4 7.7 2.6Z" fill="#fff8dd" opacity="0.9"/>
  <!-- зеркала -->
  <path d="M8.5 44c-3.2.3-5 1.6-5 3.8 0 2 1.4 3 4.2 3l.8-.1Z" fill="#d99a0c"/>
  <path d="M51.5 44c3.2.3 5 1.6 5 3.8 0 2-1.4 3-4.2 3l-.8-.1Z" fill="#d99a0c"/>
  <!-- лобовое стекло -->
  <path d="M14.5 33.5c3.4-5.4 9-8 15.5-8s12.1 2.6 15.5 8l-2.7 12.8c-7.8-3.9-17.8-3.9-25.6 0Z" fill="url(#eco-glass)"/>
  <!-- боковые стёкла -->
  <rect x="10.6" y="51" width="3.6" height="36" rx="1.8" fill="#141a24" opacity="0.85"/>
  <rect x="45.8" y="51" width="3.6" height="36" rx="1.8" fill="#141a24" opacity="0.85"/>
  <!-- крыша -->
  <rect x="15" y="51.5" width="30" height="37" rx="8.5" fill="#ffe272"/>
  <!-- шашечки такси на крыше -->
  <g fill="#20242c">
    <rect x="21" y="64" width="4.5" height="4.5"/>
    <rect x="30" y="64" width="4.5" height="4.5"/>
    <rect x="25.5" y="68.5" width="4.5" height="4.5"/>
    <rect x="34.5" y="68.5" width="4.5" height="4.5"/>
    <rect x="21" y="73" width="4.5" height="4.5"/>
    <rect x="30" y="73" width="4.5" height="4.5"/>
  </g>
  <!-- заднее стекло -->
  <path d="M15.5 95.5c8.3 4 20.7 4 29 0l2.3 10.7c-10.4 4.4-23.2 4.4-33.6 0Z" fill="url(#eco-glass)" opacity="0.95"/>
  <!-- задние фонари -->
  <path d="M12 121.5c2.2 1.4 4.9 2.4 8 3l1.3-4.4c-3-.5-5.7-1.4-8-2.6Z" fill="#e04a3a"/>
  <path d="M48 121.5c-2.2 1.4-4.9 2.4-8 3l-1.3-4.4c3-.5 5.7-1.4 8-2.6Z" fill="#e04a3a"/>
</svg>
